<?xml version="1.0" encoding="UTF-8"?>
<svg id="Capa_2" data-name="Capa 2" xmlns="http://www.w3.org/2000/svg" viewBox="0 0 428.71 131.24">
  <defs>
    <style>
      .cls-1 {
        fill: #0e293e;
      }
    </style>
  </defs>
  <g id="Capa_1-2" data-name="Capa 1">
    <path class="cls-1" d="M213.37,78.22l-11.1-6.66c-3.58,6.81-9.5,11.38-16.32,11.38-10.84,0-20.68-10.5-20.68-26.37s9.84-26.37,20.68-26.37c6.82,0,12.74,4.47,16.32,11.27l11.37-6.33c-6.52-7.62-16.46-12.49-27.69-12.49-19.67,0-35.54,12.8-35.54,33.92s15.87,33.92,35.54,33.92c11.07,0,20.89-4.79,27.41-12.27"/>
    <path class="cls-1" d="M230.38,50.19c2.02-11.48,9.46-19.99,18.29-19.99s16.27,8.51,18.29,19.99h-36.58ZM248.67,22.65c-18.71,0-33.92,15.21-33.92,33.92s15.2,33.92,33.92,33.92c13.29,0,24.88-7.76,30.41-18.93h-14.89c-3.4,6.81-9.15,11.38-15.52,11.38-10.1,0-18.39-11.16-18.82-25.2h52.74v-1.17c0-18.5-15.21-33.92-33.92-33.92"/>
    <path class="cls-1" d="M413.61,82.94h-9.73c-14.57,0-26.37-11.91-26.37-26.37s11.91-26.37,26.37-26.37h9.73v52.74ZM413.61,0v22.65h-17.28c-18.61,0-33.92,15.21-33.92,33.92s15.31,33.92,33.92,33.92h32.38V0h-15.1Z"/>
    <polygon class="cls-1" points="37.67 0 0 90.49 15.63 90.49 45.49 19.88 74.4 90.49 85.62 90.49 47.95 0 37.67 0"/>
    <path class="cls-1" d="M166.67,114.11h.13c.65-.5,3.15-4.09,5.52-4.09h1.87v16.57c0,1.93-.59,3.96-.72,4.52v.12h5.34v-.12c-.12-.56-.72-2.59-.72-4.52v-16.57h1.81c2.4,0,4.87,3.59,5.52,4.09h.12v-5.33h-18.88v5.33Z"/>
    <path class="cls-1" d="M193.63,108.87c.12.59.72,2.59.72,4.55v13.17c0,1.93-.59,3.96-.72,4.52v.12h5.33v-.12c-.12-.56-.72-2.59-.72-4.52v-13.17c0-1.96.59-3.96.72-4.55v-.09h-5.33v.09Z"/>
    <path class="cls-1" d="M206.98,114.11h.13c.65-.5,3.15-4.09,5.52-4.09h1.87v16.57c0,1.93-.59,3.96-.72,4.52v.12h5.34v-.12c-.12-.56-.72-2.59-.72-4.52v-16.57h1.81c2.4,0,4.87,3.59,5.52,4.09h.12v-5.33h-18.88v5.33Z"/>
    <path class="cls-1" d="M242.56,130.02h-4.18v-16.6c0-1.96.59-3.96.72-4.55v-.09h-5.34v.09c.12.59.72,2.59.72,4.55v13.17c0,1.93-.59,3.96-.72,4.52v.12h14.63v-5.05h-.16c-.69.5-3.24,3.84-5.68,3.84"/>
    <path class="cls-1" d="M266.1,130.02h-5.09v-9.8h2.68c2.37,0,4.87,1.12,5.52,1.31h.12v-3.71h-.12c-.66.19-3.15,1.34-5.52,1.34h-2.68v-9.2h4.99c2.43,0,4.99,2.99,5.68,3.37h.16v-4.56h-15.44v.09c.12.59.72,2.59.72,4.55v13.17c0,1.93-.59,3.96-.72,4.52v.12h15.54v-4.59h-.16c-.69.38-3.24,3.37-5.68,3.37"/>
    <path class="cls-1" d="M141.82,62.31h.02c-10.48-11.18-38.4-9.91-40.31-21.35-.76-4.54,3.41-8.41,8.2-9.96,5.03-1.63,10.28-1.49,14.55,1.2,2.74,1.73,5.28,4.96,7,7.49.14.2.27.39.4.59.25.39.49.79.73,1.2l11.28-6.36c-.23-.41-10.85-12.23-28.12-12.23-16.3,0-22.43,6.08-23.96,7.31-4.44,3.57-6.84,8.04-6.2,12.61.72,5.13,3.75,8.66,7.88,11.31.19.12.37.26.57.38,6.02,3.67,15.15,5.6,22.07,7.81,7.41,2.63,13.37,5.29,14.24,10.11.82,4.54-4.6,8.41-9.57,9.96-5.22,1.63-10.68,1.49-15.12-1.2-2.85-1.73-5.49-4.96-7.28-7.49-.14-.2-.28-.39-.42-.59-.26-.39-.51-.79-.75-1.19l-11.73,6.36c.24.41,11.27,12.23,29.21,12.23,16.93,0,23.3-6.08,24.89-7.31,4.61-3.57,7.11-8.04,6.45-12.61-.48-3.33-1.93-6.04-4.05-8.26"/>
    <path class="cls-1" d="M322.63,22.65s-.03,0-.05,0-.03,0-.05,0c-15.43,0-32.81,9.72-32.81,34.71v33.13h14.99v-34.64h.03c0-12.69,2.75-25.65,17.79-25.65.02,0,.03,0,.05,0,.02,0,.03,0,.05,0,15.05,0,17.79,12.96,17.79,25.65h.03v34.64h14.99v-33.13c0-24.99-17.38-34.71-32.81-34.71"/>
  </g>
</svg>